<?xml version="1.0" encoding="UTF-8"?>
<svg width="91px" height="80px" viewBox="0 0 91 80" version="1.1" xmlns="http://www.w3.org/2000/svg" xmlns:xlink="http://www.w3.org/1999/xlink">
    <!-- Generator: Sketch 43.1 (39012) - http://www.bohemiancoding.com/sketch -->
    <title>Group</title>
    <desc>Created with Sketch.</desc>
    <defs></defs>
    <g id="Page-1" stroke="none" stroke-width="1" fill="none" fill-rule="evenodd">
        <g id="Group" fill-rule="nonzero" fill="#FFFFFF">
            <path d="M89.253,61.761 C88.224,60.908 86.7,61.046 85.847,62.073 C79.093,70.195 69.169,74.852 58.621,74.852 C48.074,74.852 38.149,70.195 31.393,62.073 C30.54,61.047 29.016,60.909 27.986,61.761 C26.962,62.616 26.82,64.141 27.675,65.168 C35.354,74.396 46.632,79.688 58.62,79.688 C70.608,79.688 81.887,74.396 89.562,65.168 C90.419,64.141 90.278,62.614 89.253,61.761 Z" id="Shape"></path>
            <path d="M54.416,10.666 C55.149,11.381 56,11.854 56.969,12.095 C57.447,12.219 57.947,12.286 58.466,12.286 C58.48,12.286 58.491,12.285 58.505,12.285 C58.519,12.285 58.53,12.286 58.544,12.286 C59.065,12.286 59.564,12.219 60.041,12.095 C61.01,11.853 61.861,11.381 62.594,10.666 C62.596,10.663 62.6,10.66 62.602,10.657 C63.752,9.579 64.33,8.219 64.33,6.578 C64.33,5.807 64.175,5.061 63.866,4.341 C63.652,3.842 63.362,3.402 63.036,2.989 C62.898,2.807 62.755,2.628 62.595,2.451 C61.673,1.446 60.564,0.866 59.27,0.696 C59.207,0.688 59.143,0.675 59.079,0.668 C59.05,0.666 59.019,0.666 58.992,0.663 C58.844,0.651 58.696,0.639 58.546,0.639 C58.532,0.639 58.521,0.641 58.507,0.641 C58.493,0.641 58.482,0.639 58.468,0.639 C58.32,0.639 58.168,0.651 58.022,0.663 C57.993,0.666 57.963,0.666 57.935,0.668 C57.871,0.675 57.807,0.688 57.746,0.696 C56.452,0.865 55.342,1.446 54.419,2.451 C54.259,2.628 54.113,2.807 53.979,2.989 C53.651,3.402 53.362,3.842 53.149,4.341 C52.839,5.061 52.684,5.807 52.684,6.578 C52.684,8.22 53.26,9.579 54.41,10.657 C54.41,10.66 54.414,10.663 54.416,10.666 Z" id="Shape"></path>
            <path d="M33.163,35.514 C33.797,35.712 34.262,35.668 34.554,35.376 L47.917,22.012 C47.917,22.012 49.015,20.715 50.251,21.605 C51.584,22.565 51.447,23.856 51.447,24.165 L51.447,24.32 L51.447,39.307 L38.923,65.421 C38.611,66.07 38.627,66.75 38.975,67.455 C39.32,68.163 39.793,68.66 40.395,68.95 C41.045,69.26 41.811,69.358 42.695,69.24 C43.579,69.12 44.221,68.645 44.622,67.808 L56.602,42.828 C56.602,42.828 56.635,42.762 56.677,42.668 C56.685,42.659 56.698,42.651 56.706,42.64 C57.027,42.049 57.652,41.649 58.372,41.649 C59.051,41.649 59.633,42.016 59.965,42.553 L72.082,67.809 C72.481,68.646 73.123,69.121 74.007,69.241 C74.89,69.359 75.655,69.261 76.306,68.951 C76.909,68.661 77.384,68.164 77.728,67.456 C78.074,66.751 78.091,66.071 77.778,65.422 L65.564,39.95 L65.564,24.32 L65.564,24.165 C65.564,23.856 65.427,22.565 66.759,21.605 C67.997,20.715 69.09,22.012 69.09,22.012 L82.454,35.376 C82.745,35.668 83.21,35.712 83.846,35.514 C84.482,35.312 84.91,35.104 85.128,34.885 C85.564,34.449 85.745,33.885 85.674,33.194 C85.6,32.504 85.345,31.939 84.91,31.503 L69.91,16.503 C69.449,16.045 68.927,15.69 68.354,15.422 C67.829,15.121 67.279,14.848 66.679,14.637 C65.728,14.304 64.815,14.136 63.94,14.136 L63.788,14.136 L53.221,14.136 L53.068,14.136 C52.192,14.136 51.279,14.304 50.33,14.637 C49.73,14.847 49.182,15.12 48.655,15.422 C48.081,15.689 47.56,16.044 47.101,16.503 L32.102,31.503 C31.665,31.939 31.409,32.503 31.336,33.194 C31.264,33.884 31.444,34.449 31.883,34.885 C32.099,35.104 32.527,35.312 33.163,35.514 Z" id="Shape"></path>
            <path d="M13.39,15.36 C15.035,15.36 16.412,14.819 17.516,13.739 C18.62,12.659 19.175,11.298 19.175,9.651 C19.175,8.108 18.62,6.734 17.516,5.526 C16.412,4.318 15.035,3.712 13.39,3.712 C12.619,3.712 11.886,3.88 11.191,4.214 C10.497,4.548 9.879,4.985 9.338,5.526 C8.801,6.066 8.375,6.695 8.067,7.414 C7.76,8.136 7.603,8.88 7.603,9.651 C7.603,11.298 8.183,12.66 9.337,13.739 C10.496,14.82 11.847,15.36 13.39,15.36 Z" id="Shape"></path>
            <path d="M23.879,19.102 C23.003,18.511 22.092,18.048 21.143,17.713 C20.189,17.38 19.381,17.212 18.711,17.212 L7.988,17.212 C7.115,17.212 6.202,17.38 5.251,17.713 C4.3,18.048 3.439,18.497 2.667,19.064 C1.897,19.629 1.267,20.337 0.779,21.185 C0.288,22.033 0.044,22.947 0.044,23.923 L0.044,45.135 C0.044,45.752 0.263,46.332 0.702,46.869 C1.135,47.411 1.665,47.681 2.282,47.681 C2.59,47.681 3.04,47.526 3.63,47.218 C4.222,46.909 4.52,46.551 4.52,46.139 L4.52,27.239 C4.52,26.983 4.607,26.79 4.789,26.661 C4.969,26.533 5.188,26.469 5.445,26.469 C5.648,26.469 5.855,26.521 6.062,26.622 C6.267,26.726 6.369,26.931 6.369,27.239 L6.369,77.07 C6.369,77.789 6.678,78.393 7.294,78.882 C7.913,79.371 8.555,79.615 9.224,79.615 C9.943,79.615 10.675,79.371 11.423,78.882 C12.168,78.393 12.541,77.684 12.541,76.76 L12.541,46.753 C12.641,46.703 12.719,46.653 12.773,46.599 L13.235,46.371 L13.313,46.371 L13.39,46.371 C13.545,46.421 13.901,46.551 14.47,46.753 L14.47,77.07 C14.47,77.84 14.791,78.459 15.433,78.919 C16.077,79.384 16.757,79.616 17.477,79.616 C18.094,79.616 18.75,79.423 19.445,79.035 C20.139,78.651 20.485,78.046 20.485,77.224 L20.485,27.393 C20.485,27.238 20.613,27.046 20.872,26.814 C21.129,26.583 21.361,26.468 21.566,26.468 C21.669,26.468 21.835,26.52 22.067,26.621 C22.299,26.725 22.416,26.88 22.416,27.085 L22.416,45.52 C22.416,46.088 22.671,46.524 23.186,46.832 C23.699,47.142 24.163,47.296 24.575,47.296 C25.194,47.296 25.744,47.103 26.234,46.716 C26.722,46.333 26.967,45.805 26.967,45.136 L26.967,23.536 C26.967,22.714 26.669,21.916 26.079,21.144 C25.486,20.374 24.753,19.692 23.879,19.102 Z" id="Shape"></path>
        </g>
    </g>
</svg>