<?xml version="1.0" encoding="UTF-8"?>
<svg width="359px" height="80px" viewBox="0 0 359 80" version="1.1" xmlns="http://www.w3.org/2000/svg" xmlns:xlink="http://www.w3.org/1999/xlink">
    <!-- Generator: Sketch 43.1 (39012) - http://www.bohemiancoding.com/sketch -->
    <title>logo</title>
    <desc>Created with Sketch.</desc>
    <defs></defs>
    <g id="Page-1" stroke="none" stroke-width="1" fill="none" fill-rule="evenodd">
        <g id="logo" transform="translate(-1.000000, 0.000000)" fill="#FFFFFF">
            <path d="M66.58,17.93 C65.7190029,20.2942027 64.1645716,22.3435426 62.12,23.81 C58.91,26.35 55.17,27.87 52.32,30.81 C50.2521761,32.8585529 48.9316767,35.5418077 48.57,38.43 C47.44,48.43 56.13,59.43 66.47,58.48 C58.36,57.07 53.4,49.26 54.47,42.43 C55.027608,38.9357664 56.7977832,35.749451 59.47,33.43 C64.55,28.64 69.53,26.51 66.61,17.91 L66.58,17.93 Z M64.04,9.42 C61.04,20.35 40.64,17.56 47.14,40.42 C45.74,22.66 71.48,25.78 64,9.44 L64.04,9.42 Z" id="Shape"></path>
            <path d="M45.18,73.71 C43.5210256,71.810854 42.4752411,69.4543531 42.18,66.95 C41.53,62.95 42.02,58.95 40.81,54.95 C40.03036,52.1411327 38.3292876,49.6758104 35.98,47.95 C27.83,42.11 13.98,44.33 9.75,53.8 C14.93,47.4 24.17,46.88 29.62,51.14 C32.4131357,53.3231216 34.3465916,56.4216086 35.08,59.89 C36.79,66.66 36.22,72.04 45.15,73.69 L45.18,73.71 Z M53.82,75.58 C45.72,67.68 58.12,51.18 34.98,45.71 C51.18,53.21 35.89,74.16 53.8,75.6 L53.82,75.58 Z" id="Shape"></path>
            <path d="M6.88,27.8 C9.34459504,27.2879462 11.9063696,27.5319248 14.23,28.5 C18.07,29.9 21.33,32.28 25.37,33.15 C28.2011071,33.8354384 31.180389,33.550188 33.83,32.34 C42.9,28.07 47.71,14.89 41.5,6.58 C44.56,14.22 40.5,22.58 34.14,25.22 C30.8724838,26.5935634 27.2251949,26.7706162 23.84,25.72 C17.09,23.91 12.67,20.79 6.84,27.79 L6.88,27.8 Z M0.97,34.44 C11.82,31.22 20.18,50.08 36.23,32.55 C21.84,43.05 10.99,19.5 1,34.45 L0.97,34.44 Z" id="Shape"></path>
            <path d="M66.58,17.93 C65.7190029,20.2942027 64.1645716,22.3435426 62.12,23.81 C58.91,26.35 55.17,27.87 52.32,30.81 C50.2521761,32.8585529 48.9316767,35.5418077 48.57,38.43 C47.44,48.43 56.13,59.43 66.47,58.48 C58.36,57.07 53.4,49.26 54.47,42.43 C55.027608,38.9357664 56.7977832,35.749451 59.47,33.43 C64.55,28.64 69.53,26.51 66.61,17.91 L66.58,17.93 Z M64.04,9.42 C61.04,20.35 40.64,17.56 47.14,40.42 C45.74,22.66 71.48,25.78 64,9.44 L64.04,9.42 Z" id="Shape"></path>
            <path d="M45.18,73.71 C43.5210256,71.810854 42.4752411,69.4543531 42.18,66.95 C41.53,62.95 42.02,58.95 40.81,54.95 C40.03036,52.1411327 38.3292876,49.6758104 35.98,47.95 C27.83,42.11 13.98,44.33 9.75,53.8 C14.93,47.4 24.17,46.88 29.62,51.14 C32.4131357,53.3231216 34.3465916,56.4216086 35.08,59.89 C36.79,66.66 36.22,72.04 45.15,73.69 L45.18,73.71 Z M53.82,75.58 C45.72,67.68 58.12,51.18 34.98,45.71 C51.18,53.21 35.89,74.16 53.8,75.6 L53.82,75.58 Z" id="Shape"></path>
            <path d="M6.88,27.8 C9.34459504,27.2879462 11.9063696,27.5319248 14.23,28.5 C18.07,29.9 21.33,32.28 25.37,33.15 C28.2011071,33.8354384 31.180389,33.550188 33.83,32.34 C42.9,28.07 47.71,14.89 41.5,6.58 C44.56,14.22 40.5,22.58 34.14,25.22 C30.8724838,26.5935634 27.2251949,26.7706162 23.84,25.72 C17.09,23.91 12.67,20.79 6.84,27.79 L6.88,27.8 Z M0.97,34.44 C11.82,31.22 20.18,50.08 36.23,32.55 C21.84,43.05 10.99,19.5 1,34.45 L0.97,34.44 Z" id="Shape"></path>
            <path d="M73.57,52.2 C69.7427587,56.0268507 63.5379237,56.0266397 59.7109428,52.1995286 C55.8839619,48.3724175 55.8839619,42.1675825 59.7109428,38.3404714 C63.5379237,34.5133603 69.7427587,34.5131493 73.57,38.34 C75.4080728,40.1778852 76.4407071,42.6707051 76.4407071,45.27 C76.4407071,47.8692949 75.4080728,50.3621148 73.57,52.2" id="Shape"></path>
            <path d="M11.8,63.11 C10.3259297,57.9023994 13.352402,52.4858025 18.559932,51.0114828 C23.767462,49.5371631 29.1842039,52.5633759 30.658773,57.7708353 C32.1333421,62.9782946 29.1073887,68.3951815 23.9,69.87 C21.3990043,70.5783233 18.7190561,70.2640205 16.4498159,68.9962467 C14.1805757,67.7284728 12.5079639,65.6110975 11.8,63.11" id="Shape"></path>
            <path d="M32.38,3.86 C37.6450869,5.10957775 40.9008881,10.3900857 39.6527577,15.6555159 C38.4046273,20.9209461 33.1250146,24.1781987 27.8592415,22.9315158 C22.5934683,21.6848328 19.3347646,16.4061156 20.58,11.14 C21.1784216,8.60926779 22.7581743,6.42015227 24.9713834,5.0547148 C27.1845925,3.68927733 29.8497621,3.2594916 32.38,3.86" id="Shape"></path>
            <path d="M73.09,51.73 C70.4790352,54.3416806 66.5518631,55.1232634 63.1399086,53.7102596 C59.7279542,52.2972557 57.5032303,48.967968 57.5032303,45.275 C57.5032303,41.582032 59.7279542,38.2527443 63.1399086,36.8397404 C66.5518631,35.4267366 70.4790352,36.2083194 73.09,38.82 C76.6543071,42.3852843 76.6543071,48.1647157 73.09,51.73" id="Shape"></path>
            <path d="M12.45,62.92 C11.4408318,59.3671214 12.6716584,55.5562 15.5683683,53.2648165 C18.4650783,50.9734331 22.4569934,50.653011 25.6821093,52.4530092 C28.9072253,54.2530074 30.7301651,57.8188098 30.3006295,61.4871699 C29.8710939,65.15553 27.2737055,68.2037475 23.72,69.21 C18.8711999,70.5829661 13.8269444,67.7676718 12.45,62.92" id="Shape"></path>
            <path d="M32.18,4.5 C37.0834105,5.6677574 40.1127706,10.5882543 38.9475094,15.4922586 C37.7822483,20.396263 32.8632942,23.4281274 27.9586973,22.2653628 C23.0541004,21.1025983 20.0197323,16.1851882 21.18,11.28 C21.7379369,8.92124641 23.2109161,6.88115936 25.2742994,5.60936488 C27.3376828,4.3375704 29.8221012,3.93846151 32.18,4.5" id="Shape"></path>
            <path d="M359.18,18.26 L350.07,18.26 L350.07,30.86 L359.27,30.86 L359.27,29.56 L351.5,29.56 L351.5,25.15 L358.37,25.15 L358.37,23.85 L351.5,23.85 L351.5,19.55 L359.18,19.55 L359.18,18.26 Z M344.97,18.26 L344.97,30.86 L346.39,30.86 L346.39,18.26 L344.97,18.26 Z M340.81,22.33 C340.81,24 339.44,25.12 337.36,25.12 L334.18,25.12 L334.18,19.58 L337.36,19.58 C339.43,19.57 340.78,20.5 340.78,22.32 L340.81,22.33 Z M342.25,22.28 C342.25,19.78 340.38,18.28 337.54,18.28 L332.83,18.28 L332.83,30.88 L334.18,30.88 L334.18,26.44 L337.24,26.44 C339.96,26.41 342.18,25 342.18,22.27 L342.25,22.28 Z M326.78,26.28 L321.04,26.28 L323.92,19.86 L326.78,26.28 Z M324.6,18.2 L323.27,18.2 L317.53,30.89 L318.99,30.89 L320.48,27.56 L327.34,27.56 L328.82,30.89 L330.35,30.89 L324.6,18.2 Z M314.13,22.1 C314.13,23.74 312.78,24.71 310.89,24.71 L307.02,24.71 L307.02,19.6 L310.91,19.6 C312.91,19.57 314.1,20.5 314.1,22.07 L314.13,22.1 Z M316.02,30.88 L312.15,25.73 C314.15,25.37 315.57,24.15 315.57,22.04 C315.57,19.77 313.79,18.28 311.02,18.28 L305.6,18.28 L305.6,30.88 L307.02,30.88 L307.02,25.99 L310.62,25.99 L314.27,30.88 L316.02,30.88 Z M302.65,18.28 L293.55,18.28 L293.55,30.88 L302.74,30.88 L302.74,29.58 L294.97,29.58 L294.97,25.17 L301.84,25.17 L301.84,23.87 L294.97,23.87 L294.97,19.57 L302.65,19.57 L302.65,18.28 Z M288.56,25.21 L288.56,30.88 L289.98,30.88 L289.98,18.28 L288.56,18.28 L288.56,23.88 L281.29,23.88 L281.29,18.28 L279.87,18.28 L279.87,30.88 L281.29,30.88 L281.29,25.21 L288.56,25.21 Z M272.98,19.6 L277.18,19.6 L277.18,18.29 L267.28,18.29 L267.28,19.6 L271.51,19.6 L271.51,30.88 L272.95,30.88 L272.98,19.6 Z M264.59,24.6 C264.638569,25.9449236 264.14292,27.2526407 263.215111,28.227499 C262.287301,29.2023573 261.00568,29.7620355 259.66,29.78 C258.294905,29.7813221 256.988624,29.2244464 256.044353,28.2386276 C255.100082,27.2528088 254.599935,25.9237736 254.66,24.56 C254.611431,23.2150764 255.10708,21.9073593 256.034889,20.932501 C256.962699,19.9576427 258.24432,19.3979645 259.59,19.38 C260.944455,19.3871478 262.238059,19.9434969 263.174858,20.9217639 C264.111657,21.9000309 264.611489,23.2165054 264.56,24.57 L264.59,24.6 Z M266.07,24.6 C266.009522,21.0718889 263.113006,18.2538942 259.584566,18.2903773 C256.056125,18.3268604 253.218497,21.2041446 253.230983,24.7327519 C253.24347,28.2613593 256.101389,31.1184891 259.63,31.13 C261.375959,31.1540379 263.054302,30.4557933 264.267995,29.2004445 C265.481688,27.9450957 266.12292,26.2441548 266.04,24.5 L266.07,24.6 Z M250.58,29.21 L250.58,24.21 L245.38,24.21 L245.38,25.49 L249.18,25.49 L249.18,28.5 C248.143382,29.3112462 246.866308,29.7545279 245.55,29.76 C242.49,29.76 240.55,27.53 240.55,24.51 C240.482168,23.1837005 240.952294,21.8861273 241.853932,20.9110783 C242.75557,19.9360293 244.012455,19.3659794 245.34,19.33 C246.756858,19.2846456 248.133986,19.8024169 249.17,20.77 L250.09,19.69 C248.79989,18.5436973 247.11416,17.9447255 245.39,18.02 C243.677681,18.0218502 242.039159,18.7173309 240.848313,19.9477466 C239.657466,21.1781624 239.015897,22.8385354 239.07,24.55 C238.978771,26.284472 239.621631,27.9772713 240.841192,29.2139553 C242.060753,30.4506393 243.744425,31.1170383 245.48,31.05 C247.346579,31.0540543 249.150067,30.3746341 250.55,29.14 L250.58,29.21 Z M235.18,22.07 C235.18,23.71 233.83,24.68 231.94,24.68 L228.07,24.68 L228.07,19.57 L231.96,19.57 C233.97,19.57 235.18,20.5 235.18,22.07 Z M237.07,30.85 L233.18,25.71 C235.18,25.35 236.6,24.13 236.6,22.02 C236.6,19.75 234.82,18.26 232.05,18.26 L226.63,18.26 L226.63,30.86 L228.05,30.86 L228.05,25.97 L231.65,25.97 L235.3,30.86 L237.07,30.85 Z M223.7,18.25 L214.58,18.25 L214.58,30.85 L223.78,30.85 L223.78,29.55 L216.01,29.55 L216.01,25.14 L222.88,25.14 L222.88,23.84 L216.01,23.84 L216.01,19.54 L223.69,19.54 L223.7,18.25 Z M204.7,22.06 C204.7,23.7 203.35,24.67 201.46,24.67 L197.59,24.67 L197.59,19.56 L201.48,19.56 C203.51,19.57 204.7,20.5 204.7,22.07 L204.7,22.06 Z M206.59,30.84 L202.72,25.69 C204.72,25.33 206.14,24.11 206.14,22 C206.14,19.73 204.36,18.24 201.59,18.24 L196.18,18.24 L196.18,30.84 L197.6,30.84 L197.6,25.95 L201.18,25.95 L204.83,30.84 L206.59,30.84 Z M186.78,17.19 L186.78,15.5 L185.18,15.5 L185.18,17.21 L186.78,17.19 Z M189.95,17.19 L189.95,15.5 L188.33,15.5 L188.33,17.21 L189.95,17.19 Z M192.81,18.25 L191.38,18.25 L191.38,25.57 C191.38,28.32 189.9,29.73 187.58,29.73 C185.26,29.73 183.73,28.2 183.73,25.48 L183.73,18.25 L182.31,18.25 L182.31,25.57 C182.31,29.13 184.43,31.04 187.55,31.04 C190.67,31.04 192.8,29.13 192.8,25.46 L192.81,18.25 Z M179.81,18.25 L170.76,18.25 L170.76,30.85 L172.18,30.85 L172.18,25.36 L179,25.36 L179,24.06 L172.18,24.06 L172.18,19.56 L179.81,19.56 L179.81,18.25 Z M154.94,21.4 C154.94,20.25 155.94,19.35 157.62,19.35 C158.955749,19.3532723 160.24517,19.8399136 161.25,20.72 L162.08,19.62 C160.844535,18.5755313 159.267139,18.0236208 157.65,18.07 C155.26,18.07 153.51,19.51 153.51,21.53 C153.51,23.55 154.84,24.53 157.74,25.18 C160.38,25.74 161.01,26.4 161.01,27.59 C161.01,28.78 159.89,29.75 158.2,29.75 C156.578642,29.7647531 155.020336,29.1226733 153.88,27.97 L153,28.97 C154.392402,30.2792134 156.238945,30.9963177 158.15,30.97 C160.65,30.97 162.45,29.57 162.45,27.39 C162.45,25.45 161.15,24.39 158.35,23.81 C155.55,23.23 154.89,22.61 154.89,21.4 L154.94,21.4 Z M148.73,18.25 L148.73,30.85 L150.15,30.85 L150.15,18.25 L148.73,18.25 Z M145.99,30.85 L141.15,24.41 L145.81,18.26 L144.15,18.26 L140.32,23.41 L136.45,18.26 L134.78,18.26 L139.44,24.43 L134.6,30.85 L136.18,30.85 L140.18,25.43 L144.18,30.85 L145.99,30.85 Z M129.6,26.24 L123.86,26.24 L126.74,19.82 L129.6,26.24 Z M127.42,18.16 L126.09,18.16 L120.35,30.85 L121.81,30.85 L123.3,27.52 L130.16,27.52 L131.64,30.85 L133.17,30.85 L127.42,18.16 Z M116.95,22.06 C116.95,23.7 115.6,24.67 113.71,24.67 L109.84,24.67 L109.84,19.56 L113.73,19.56 C115.72,19.57 116.91,20.5 116.91,22.07 L116.95,22.06 Z M118.84,30.84 L114.97,25.69 C116.97,25.33 118.39,24.11 118.39,22 C118.39,19.73 116.61,18.24 113.84,18.24 L108.38,18.24 L108.38,30.84 L109.8,30.84 L109.8,25.95 L113.4,25.95 L117.05,30.84 L118.84,30.84 Z M104.39,22.31 C104.39,23.98 103.02,25.1 100.94,25.1 L97.78,25.1 L97.78,19.56 L100.97,19.56 C103,19.57 104.35,20.5 104.35,22.32 L104.39,22.31 Z M105.83,22.26 C105.83,19.76 103.96,18.26 101.12,18.26 L96.41,18.26 L96.41,30.86 L97.83,30.86 L97.83,26.42 L100.89,26.42 C103.52,26.41 105.79,25 105.79,22.27 L105.83,22.26 Z" id="Shape" fill-rule="nonzero"></path>
            <path d="M253.65,38.28 L244.54,38.28 L244.54,50.88 L253.74,50.88 L253.74,49.58 L245.97,49.58 L245.97,45.17 L252.84,45.17 L252.84,43.87 L245.97,43.87 L245.97,39.57 L253.65,39.57 L253.65,38.28 Z M239.44,38.28 L239.44,50.88 L240.86,50.88 L240.86,38.28 L239.44,38.28 Z M234.83,44.6 C234.867231,45.9760928 234.321528,47.3039029 233.327403,48.2561291 C232.333279,49.2083554 230.983216,49.696414 229.61,49.6 L226.61,49.6 L226.61,39.6 L229.61,39.6 C230.980832,39.5129923 232.325432,40.0041826 233.317386,40.9543294 C234.309339,41.9044762 234.857936,43.2266939 234.83,44.6 L234.83,44.6 Z M236.31,44.6 C236.31,41.04 233.58,38.32 229.62,38.32 L225.25,38.32 L225.25,50.92 L229.62,50.92 C233.57,50.88 236.31,48.13 236.31,44.56 L236.31,44.6 Z M215.58,37.2 L215.58,35.5 L213.96,35.5 L213.96,37.21 L215.58,37.2 Z M218.75,37.2 L218.75,35.5 L217.13,35.5 L217.13,37.21 L218.75,37.2 Z M219.2,46.3 L213.46,46.3 L216.34,39.88 L219.2,46.3 Z M217.02,38.22 L215.69,38.22 L209.95,50.9 L211.41,50.9 L212.9,47.57 L219.76,47.57 L221.24,50.9 L222.77,50.9 L217.02,38.22 Z M207.02,42.38 C207.02,44.05 205.65,45.17 203.57,45.17 L200.46,45.17 L200.46,39.6 L203.64,39.6 C205.65,39.6 207,40.5 207,42.35 L207.02,42.38 Z M208.46,42.33 C208.46,39.83 206.59,38.33 203.75,38.33 L199.04,38.33 L199.04,50.93 L200.46,50.93 L200.46,46.49 L203.52,46.49 C206.18,46.44 208.44,45.03 208.44,42.3 L208.46,42.33 Z M194.55,44.63 C194.598569,45.9749236 194.10292,47.2826407 193.175111,48.257499 C192.247301,49.2323573 190.96568,49.7920355 189.62,49.81 C188.254905,49.8113221 186.948624,49.2544464 186.004353,48.2686276 C185.060082,47.2828088 184.559935,45.9537736 184.62,44.59 C184.571431,43.2450764 185.06708,41.9373593 185.994889,40.962501 C186.922699,39.9876427 188.20432,39.4279645 189.55,39.41 C190.906194,39.414445 192.202405,39.9696097 193.141382,40.9481823 C194.080359,41.9267549 194.581543,43.2447783 194.53,44.6 L194.55,44.63 Z M196.03,44.63 C195.969522,41.1018889 193.073006,38.2838942 189.544566,38.3203773 C186.016125,38.3568604 183.178497,41.2341446 183.190983,44.7627519 C183.20347,48.2913593 186.061389,51.1484891 189.59,51.16 C191.330507,51.18359 193.003922,50.4894088 194.216655,49.240729 C195.429388,47.9920492 196.074406,46.2990763 196,44.56 L196.03,44.63 Z M180.54,49.24 L180.54,44.24 L175.34,44.24 L175.34,45.52 L179.18,45.52 L179.18,48.65 C178.143382,49.4612462 176.866308,49.9045279 175.55,49.91 C172.49,49.91 170.55,47.68 170.55,44.66 C170.482168,43.3337005 170.952294,42.0361273 171.853932,41.0610783 C172.75557,40.0860293 174.012455,39.5159794 175.34,39.48 C176.756858,39.4346456 178.133986,39.9524169 179.17,40.92 L180.09,39.84 C178.79989,38.6936973 177.11416,38.0947255 175.39,38.17 C173.677681,38.1718502 172.039159,38.8673309 170.848313,40.0977466 C169.657466,41.3281624 169.015897,42.9885354 169.07,44.7 C168.978771,46.434472 169.621631,48.1272713 170.841192,49.3639553 C172.060753,50.6006393 173.744425,51.2670383 175.48,51.2 C177.348712,51.1622643 179.13857,50.4399162 180.51,49.17 L180.54,49.24 Z M165.16,44.67 C165.208569,46.0149236 164.71292,47.3226407 163.785111,48.297499 C162.857301,49.2723573 161.57568,49.8320355 160.23,49.85 C158.864905,49.8513221 157.558624,49.2944464 156.614353,48.3086276 C155.670082,47.3228088 155.169935,45.9937736 155.23,44.63 C155.181431,43.2850764 155.67708,41.9773593 156.604889,41.002501 C157.532699,40.0276427 158.81432,39.4679645 160.16,39.45 C161.507274,39.4574767 162.794515,40.0083508 163.730103,40.9778233 C164.665691,41.9472958 165.17044,43.2533128 165.13,44.6 L165.16,44.67 Z M166.64,44.67 C166.634419,41.1308606 163.765736,38.2637589 160.226594,38.260128 C156.687452,38.2564972 153.812893,41.1177069 153.80005,44.6568274 C153.787207,48.1959479 156.640925,51.0779449 160.18,51.1 C161.911408,51.1255793 163.577709,50.4407505 164.790744,49.2050422 C166.003779,47.9693339 166.657635,46.2906376 166.6,44.56 L166.64,44.67 Z M143.93,50.99 L152.44,50.99 L152.44,49.68 L145.35,49.68 L145.35,38.28 L143.93,38.28 L143.93,50.99 Z M134.05,44.71 C134.087231,46.0860928 133.541528,47.4139029 132.547403,48.3661291 C131.553279,49.3183554 130.203216,49.806414 128.83,49.71 L125.83,49.71 L125.83,39.71 L128.83,39.71 C130.176543,39.6330822 131.495437,40.1134585 132.477088,41.0383668 C133.458739,41.9632752 134.016701,43.2512659 134.02,44.6 L134.05,44.71 Z M135.53,44.71 C135.53,41.15 132.8,38.43 128.84,38.43 L124.47,38.43 L124.47,51.03 L128.84,51.03 C132.76,50.88 135.49,48.13 135.49,44.56 L135.53,44.71 Z M119.53,48.52 L111.59,38.43 L110.18,38.43 L110.18,51.03 L111.57,51.03 L111.57,40.55 L119.7,50.88 L120.83,50.88 L120.83,38.28 L119.48,38.28 L119.53,48.52 Z M106.9,38.43 L105.48,38.43 L105.48,45.75 C105.48,48.5 104,49.91 101.68,49.91 C99.36,49.91 97.83,48.38 97.83,45.66 L97.83,38.43 L96.41,38.43 L96.41,45.75 C96.41,49.31 98.53,51.22 101.65,51.22 C104.77,51.22 106.9,49.31 106.9,45.64 L106.9,38.43 Z" id="Shape" fill-rule="nonzero"></path>
            <path d="M192.56,58.98 C192.56,59.84 191.85,60.35 190.86,60.35 L188.86,60.35 L188.86,57.67 L190.86,57.67 C191.93,57.67 192.55,58.16 192.55,58.98 L192.56,58.98 Z M193.55,63.59 L191.55,60.89 C192.562451,60.8114872 193.34304,59.9654864 193.34,58.95 C193.34,57.76 192.41,56.95 190.95,56.95 L188.08,56.95 L188.08,63.56 L188.83,63.56 L188.83,60.99 L190.72,60.99 L192.64,63.56 L193.55,63.59 Z M186.55,56.98 L181.77,56.98 L181.77,63.59 L186.6,63.59 L186.6,62.91 L182.52,62.91 L182.52,60.6 L186.13,60.6 L186.13,59.92 L182.52,59.92 L182.52,57.66 L186.52,57.66 L186.55,56.98 Z M179.2,57.65 L174.92,63.09 L174.92,63.59 L180.18,63.59 L180.18,62.92 L175.89,62.92 L180.18,57.5 L180.18,57 L175.02,57 L175.02,57.67 L179.2,57.65 Z M172.63,62.28 L168.46,56.98 L167.76,56.98 L167.76,63.59 L168.49,63.59 L168.49,58.17 L172.76,63.59 L173.36,63.59 L173.36,56.98 L172.63,56.98 L172.63,62.28 Z M162.69,56.4 L162.69,55.5 L161.84,55.5 L161.84,56.4 L162.69,56.4 Z M164.35,56.4 L164.35,55.5 L163.5,55.5 L163.5,56.4 L164.35,56.4 Z M164.59,61.18 L161.59,61.18 L163.1,57.81 L164.59,61.18 Z M163.45,56.94 L162.75,56.94 L159.75,63.6 L160.52,63.6 L161.3,61.85 L164.9,61.85 L165.67,63.6 L166.47,63.6 L163.45,56.94 Z M157.95,60.3 C157.963764,61.0238779 157.670366,61.7197339 157.142472,62.2152301 C156.614578,62.7107264 155.901558,62.9595222 155.18,62.9 L153.63,62.9 L153.63,57.67 L155.18,57.67 C155.901984,57.6221547 156.610879,57.8796868 157.133801,58.3797902 C157.656722,58.8798936 157.945606,59.5766004 157.93,60.3 L157.95,60.3 Z M158.72,60.3 C158.72185,59.3871556 158.345496,58.5143227 157.680428,57.8890448 C157.01536,57.2637669 156.120996,56.9419079 155.21,57 L152.92,57 L152.92,63.61 L155.18,63.61 C156.098809,63.6712358 157.001598,63.3469495 157.671434,62.715064 C158.341271,62.0831785 158.717602,61.2008162 158.71,60.28 L158.72,60.3 Z M147.48,62.3 L143.31,57 L142.61,57 L142.61,63.61 L143.34,63.61 L143.34,58.19 L147.61,63.61 L148.18,63.61 L148.18,57 L147.45,57 L147.48,62.3 Z M139.48,61.19 L136.48,61.19 L137.99,57.82 L139.48,61.19 Z M138.34,56.95 L137.64,56.95 L134.64,63.61 L135.41,63.61 L136.19,61.86 L139.79,61.86 L140.56,63.61 L141.36,63.61 L138.34,56.95 Z M132.51,56.95 L132.51,63.56 L133.18,63.56 L133.18,56.95 L132.51,56.95 Z M128.83,57.64 L131.05,57.64 L131.05,56.95 L125.86,56.95 L125.86,57.64 L128.08,57.64 L128.08,63.56 L128.84,63.56 L128.83,57.64 Z M121,58.64 C121,58.03 121.55,57.56 122.41,57.56 C123.112717,57.5615102 123.791152,57.8172552 124.32,58.28 L124.75,57.7 C124.102294,57.154405 123.276538,56.8661022 122.43,56.89 C121.889418,56.8198086 121.343609,56.973314 120.918865,57.3149973 C120.49412,57.6566806 120.227248,58.156932 120.18,58.7 C120.18,59.8 120.88,60.29 122.4,60.62 C123.92,60.95 124.12,61.26 124.12,61.89 C124.12,62.52 123.53,63.02 122.65,63.02 C121.798752,63.0294745 120.979912,62.6940028 120.38,62.09 L119.92,62.64 C120.648544,63.3300078 121.616613,63.7100648 122.62,63.7 C123.93,63.7 124.88,62.96 124.88,61.82 C124.88,60.68 124.2,60.26 122.73,59.94 C121.26,59.62 120.95,59.27 120.95,58.63 L121,58.64 Z M117.74,56.99 L117.74,63.6 L118.49,63.6 L118.49,56.99 L117.74,56.99 Z M115.32,58.99 C115.32,59.85 114.61,60.36 113.62,60.36 L111.62,60.36 L111.62,57.68 L113.62,57.68 C114.65,57.67 115.27,58.16 115.27,58.98 L115.32,58.99 Z M116.32,63.6 L114.32,60.9 C115.332451,60.8214872 116.11304,59.9754864 116.11,58.96 C116.11,57.77 115.18,56.96 113.72,56.96 L110.88,56.96 L110.88,63.57 L111.63,63.57 L111.63,61 L113.52,61 L115.44,63.57 L116.32,63.6 Z M108.24,60.6 L108.24,63.6 L108.99,63.6 L108.99,56.99 L108.18,56.99 L108.18,59.93 L104.36,59.93 L104.36,56.99 L103.61,56.99 L103.61,63.6 L104.36,63.6 L104.36,60.6 L108.24,60.6 Z M102.31,62.5 L101.82,62.02 C101.285562,62.6424484 100.510294,63.0064243 99.69,63.02 C98.2725905,62.8985699 97.1838803,61.7126015 97.1838803,60.29 C97.1838803,58.8673985 98.2725905,57.6814301 99.69,57.56 C100.47894,57.5645472 101.231216,57.8936682 101.77,58.47 L102.28,57.92 C101.597881,57.2402362 100.662061,56.8775152 99.7,56.92 C97.8111863,56.9200002 96.2800004,58.4511863 96.2800004,60.34 C96.2800004,62.2288137 97.8111863,63.7599998 99.7,63.76 C100.713105,63.7448705 101.668015,63.2838793 102.31,62.5 Z" id="Shape" fill-rule="nonzero"></path>
            <rect id="Rectangle-path" fill-rule="nonzero" x="86.84" y="0" width="1" height="79.18"></rect>
        </g>
    </g>
</svg>