<svg id="Layer_1" data-name="Layer 1" xmlns="http://www.w3.org/2000/svg" xmlns:xlink="http://www.w3.org/1999/xlink" viewBox="0 0 358.24 79.18"><defs><style>.cls-1{fill:url(#linear-gradient);}.cls-2{fill:url(#linear-gradient-2);}.cls-3{fill:url(#linear-gradient-3);}.cls-4{fill:url(#linear-gradient-4);}.cls-5{fill:url(#linear-gradient-5);}.cls-6{fill:url(#linear-gradient-6);}.cls-7{fill:#1f9100;}.cls-11,.cls-13,.cls-15,.cls-7,.cls-8,.cls-9{fill-rule:evenodd;}.cls-8{fill:#f60;}.cls-9{fill:#014fa2;}.cls-10{mask:url(#mask);}.cls-11{fill:#b6cf30;}.cls-12{mask:url(#mask-2);}.cls-13{fill:#ffc60b;}.cls-14{mask:url(#mask-3);}.cls-15{fill:#0cf;}.cls-16{mask:url(#mask-4);}.cls-17{mask:url(#mask-5);}.cls-18{mask:url(#mask-6);}.cls-19{fill:#4d4d4d;}.cls-20{fill:#666;}</style><linearGradient id="linear-gradient" x1="-0.07" y1="1163.99" x2="12.83" y2="1166.35" gradientTransform="translate(286.66 -809.47)" gradientUnits="userSpaceOnUse"><stop offset="0" stop-color="#fff"/><stop offset="1"/></linearGradient><linearGradient id="linear-gradient-2" x1="32.22" y1="1162.79" x2="23.87" y2="1172.9" gradientTransform="translate(250.56 -792.45)" xlink:href="#linear-gradient"/><linearGradient id="linear-gradient-3" x1="27.58" y1="1189.01" x2="22.82" y2="1176.79" gradientTransform="translate(241.82 -827.93)" xlink:href="#linear-gradient"/><linearGradient id="linear-gradient-4" x1="-2.89" y1="1178.87" x2="13.1" y2="1182.27" gradientTransform="translate(298.33 -813.65)" xlink:href="#linear-gradient"/><linearGradient id="linear-gradient-5" x1="17.21" y1="1172.17" x2="6.45" y2="1184.48" gradientTransform="translate(252.92 -798.49)" xlink:href="#linear-gradient"/><linearGradient id="linear-gradient-6" x1="13.26" y1="1192.99" x2="7.76" y2="1177.59" gradientTransform="translate(261.81 -845.53)" xlink:href="#linear-gradient"/><mask id="mask" x="44.83" y="9.44" width="21.6" height="49.15" maskUnits="userSpaceOnUse"><g transform="translate(-241.82 -322.5)"><rect class="cls-1" x="286.66" y="331.94" width="21.6" height="49.15"/></g></mask><mask id="mask-2" x="8.74" y="44.75" width="44.06" height="30.85" maskUnits="userSpaceOnUse"><g transform="translate(-241.82 -322.5)"><rect class="cls-2" x="250.56" y="367.25" width="44.06" height="30.85"/></g></mask><mask id="mask-3" x="0" y="6.58" width="43.29" height="33.54" maskUnits="userSpaceOnUse"><g transform="translate(-241.82 -322.5)"><rect class="cls-3" x="241.82" y="329.09" width="43.29" height="33.54"/></g></mask><mask id="mask-4" x="56.51" y="36.14" width="18.25" height="18.25" maskUnits="userSpaceOnUse"><g transform="translate(-241.82 -322.5)"><rect class="cls-4" x="298.33" y="358.65" width="18.25" height="18.25"/></g></mask><mask id="mask-5" x="11.1" y="51.3" width="18.26" height="18.26" maskUnits="userSpaceOnUse"><g transform="translate(-241.82 -322.5)"><rect class="cls-5" x="252.92" y="373.8" width="18.26" height="18.26"/></g></mask><mask id="mask-6" x="19.99" y="4.26" width="18.26" height="18.26" maskUnits="userSpaceOnUse"><g transform="translate(-241.82 -322.5)"><rect class="cls-6" x="261.81" y="326.77" width="18.26" height="18.26"/></g></mask></defs><title>PRAXIS FÜR ERGOTHERAPIE</title><path class="cls-7" d="M307.4,340.43a12.5,12.5,0,0,1-4.46,5.88c-3.21,2.54-6.95,4.06-9.8,7a13,13,0,0,0-3.75,7.62c-1.13,10,7.56,21,17.9,20.05-8.11-1.41-13.07-9.22-12-16.05a15.06,15.06,0,0,1,5-9c5.08-4.79,10.06-6.92,7.14-15.52m-2.57-8.49c-3,10.93-23.4,8.14-16.9,31C286.56,345.16,312.3,348.28,304.82,331.94Z" transform="translate(-241.82 -322.5)"/><path class="cls-8" d="M286,396.21a12.5,12.5,0,0,1-3-6.76c-.65-4-.16-8-1.37-12a13,13,0,0,0-4.83-7c-8.15-5.84-22-3.62-26.23,5.85,5.18-6.4,14.42-6.92,19.87-2.66a15.06,15.06,0,0,1,5.46,8.75c1.71,6.77,1.14,12.15,10.07,13.8m8.67,1.89c-8.1-7.9,4.3-24.4-18.84-29.87C292,375.71,276.71,396.66,294.62,398.1Z" transform="translate(-241.82 -322.5)"/><path class="cls-9" d="M247.7,350.3a12.5,12.5,0,0,1,7.35.7c3.84,1.4,7.1,3.78,11.14,4.65a13,13,0,0,0,8.46-.81c9.07-4.27,13.88-17.45,7.67-25.76,3.06,7.64-1,16-7.36,18.64a15.06,15.06,0,0,1-10.3.5c-6.75-1.81-11.17-4.93-17,2.07m-5.87,6.65c10.85-3.22,19.21,15.64,35.26-1.89C262.66,365.55,251.81,342,241.82,356.95Z" transform="translate(-241.82 -322.5)"/><g class="cls-10"><path class="cls-11" d="M307.4,340.43a12.5,12.5,0,0,1-4.46,5.88c-3.21,2.54-6.95,4.06-9.8,7a13,13,0,0,0-3.75,7.62c-1.13,10,7.56,21,17.9,20.05-8.11-1.41-13.07-9.22-12-16.05a15.06,15.06,0,0,1,5-9c5.08-4.79,10.06-6.92,7.14-15.52m-2.57-8.49c-3,10.93-23.4,8.14-16.9,31C286.56,345.16,312.3,348.28,304.82,331.94Z" transform="translate(-241.82 -322.5)"/></g><g class="cls-12"><path class="cls-13" d="M286,396.21a12.5,12.5,0,0,1-3-6.76c-.65-4-.16-8-1.37-12a13,13,0,0,0-4.83-7c-8.15-5.84-22-3.62-26.23,5.85,5.18-6.4,14.42-6.92,19.87-2.66a15.06,15.06,0,0,1,5.46,8.75c1.71,6.77,1.14,12.15,10.07,13.8m8.67,1.89c-8.1-7.9,4.3-24.4-18.84-29.87C292,375.71,276.71,396.66,294.62,398.1Z" transform="translate(-241.82 -322.5)"/></g><g class="cls-14"><path class="cls-15" d="M247.7,350.3a12.5,12.5,0,0,1,7.35.7c3.84,1.4,7.1,3.78,11.14,4.65a13,13,0,0,0,8.46-.81c9.07-4.27,13.88-17.45,7.67-25.76,3.06,7.64-1,16-7.36,18.64a15.06,15.06,0,0,1-10.3.5c-6.75-1.81-11.17-4.93-17,2.07m-5.87,6.65c10.85-3.22,19.21,15.64,35.26-1.89C262.66,365.55,251.81,342,241.82,356.95Z" transform="translate(-241.82 -322.5)"/></g><path class="cls-7" d="M314.39,374.7a9.8,9.8,0,1,1,0-13.86,9.8,9.8,0,0,1,0,13.86" transform="translate(-241.82 -322.5)"/><path class="cls-8" d="M252.62,385.61a9.8,9.8,0,1,1,12.1,6.76,9.8,9.8,0,0,1-12.1-6.76" transform="translate(-241.82 -322.5)"/><path class="cls-9" d="M273.2,326.36a9.8,9.8,0,1,1-11.8,7.28,9.8,9.8,0,0,1,11.8-7.28" transform="translate(-241.82 -322.5)"/><g class="cls-16"><path class="cls-11" d="M313.91,374.23a9.13,9.13,0,1,1,0-12.91,9.13,9.13,0,0,1,0,12.91" transform="translate(-241.82 -322.5)"/></g><g class="cls-17"><path class="cls-13" d="M253.27,385.42a9.13,9.13,0,1,1,11.27,6.29,9.13,9.13,0,0,1-11.27-6.29" transform="translate(-241.82 -322.5)"/></g><g class="cls-18"><path class="cls-15" d="M273,327a9.13,9.13,0,1,1-11,6.78A9.13,9.13,0,0,1,273,327" transform="translate(-241.82 -322.5)"/></g><path class="cls-19" d="M600,340.76h-9.11v12.6h9.2v-1.3h-7.77v-4.41h6.87v-1.3h-6.87v-4.3H600Zm-14.21,0v12.6h1.42v-12.6Zm-4.16,4.07c0,1.67-1.37,2.79-3.45,2.79H575v-5.54h3.18C580.25,342.07,581.6,343,581.6,344.82Zm1.44-.05c0-2.5-1.87-4-4.71-4h-4.71v12.6H575v-4.44h3.06C580.78,348.91,583,347.5,583,344.77Zm-15.47,4h-5.74l2.88-6.42Zm-2.18-8.08h-1.33l-5.74,12.69h1.46l1.49-3.33h6.86l1.48,3.33h1.53Zm-10.47,3.9c0,1.64-1.35,2.61-3.24,2.61h-3.87v-5.11h3.89C553.73,342.07,554.92,343,554.92,344.57Zm1.89,8.78-3.87-5.15c2-.36,3.42-1.58,3.42-3.69,0-2.27-1.78-3.76-4.55-3.76h-5.42v12.6h1.42v-4.89h3.6l3.65,4.89Zm-13.37-12.6h-9.1v12.6h9.19v-1.3h-7.77v-4.41h6.87v-1.3h-6.87v-4.3h7.68Zm-14.09,6.93v5.67h1.42v-12.6h-1.42v5.6h-7.27v-5.6h-1.42v12.6h1.42v-5.67Zm-15.58-5.61H518v-1.31h-9.9v1.31h4.23v11.28h1.44Zm-8.39,5a5,5,0,0,1-4.93,5.18,5,5,0,0,1-5-5.22,5,5,0,0,1,4.93-5.18A5,5,0,0,1,505.38,347.07Zm1.48,0a6.42,6.42,0,1,0-6.44,6.53A6.33,6.33,0,0,0,506.86,347Zm-15.49,4.61v-5h-5.2v1.28H490V351a5.93,5.93,0,0,1-3.63,1.26c-3.06,0-5-2.23-5-5.25a4.93,4.93,0,0,1,4.79-5.18,5.36,5.36,0,0,1,3.83,1.44l.92-1.08a6.64,6.64,0,0,0-4.7-1.67,6.33,6.33,0,0,0-6.32,6.53,6.18,6.18,0,0,0,6.41,6.5A7.64,7.64,0,0,0,491.37,351.64ZM476,344.57c0,1.64-1.35,2.61-3.24,2.61h-3.87v-5.11h3.89C474.79,342.07,476,343,476,344.57Zm1.89,8.78L474,348.21c2-.36,3.42-1.58,3.42-3.69,0-2.27-1.78-3.76-4.55-3.76h-5.42v12.6h1.42v-4.89h3.6l3.65,4.89Zm-13.37-12.6H455.4v12.6h9.2v-1.3h-7.77v-4.41h6.87v-1.3h-6.87v-4.3h7.68Zm-19,3.81c0,1.64-1.35,2.61-3.24,2.61h-3.87v-5.11h3.89C444.33,342.07,445.52,343,445.52,344.57Zm1.89,8.78-3.87-5.15c2-.36,3.42-1.58,3.42-3.69,0-2.27-1.78-3.76-4.55-3.76H437v12.6h1.42v-4.89H442l3.65,4.89ZM427.6,339.69V338H426v1.71Zm3.17,0V338h-1.62v1.71Zm2.86,1.06H432.2v7.32c0,2.75-1.48,4.16-3.8,4.16s-3.85-1.53-3.85-4.25v-7.23h-1.42v7.32c0,3.56,2.12,5.47,5.24,5.47s5.25-1.91,5.25-5.58Zm-13,0h-9.05v12.6h1.42v-5.49h6.82v-1.3h-6.82v-4.5h7.63Zm-24.87,3.15c0-1.15,1-2.05,2.68-2.05a5.53,5.53,0,0,1,3.63,1.37l.83-1.1a6.57,6.57,0,0,0-4.43-1.55c-2.39,0-4.14,1.44-4.14,3.46s1.33,3,4.23,3.65c2.64.56,3.27,1.22,3.27,2.41s-1.12,2.16-2.81,2.16a6,6,0,0,1-4.32-1.78l-.88,1a7.37,7.37,0,0,0,5.15,2c2.5,0,4.3-1.4,4.3-3.58,0-1.94-1.3-3-4.1-3.58S395.71,345.11,395.71,343.9Zm-6.21-3.15v12.6h1.42v-12.6Zm-2.74,12.6-4.84-6.44,4.66-6.15h-1.66l-3.83,5.15-3.87-5.15h-1.67l4.66,6.17-4.84,6.42H377l4-5.42,4,5.42Zm-16.39-4.61h-5.74l2.88-6.42Zm-2.18-8.08h-1.33l-5.74,12.69h1.46l1.49-3.33h6.86l1.48,3.33h1.53Zm-10.47,3.9c0,1.64-1.35,2.61-3.24,2.61h-3.87v-5.11h3.89C356.54,342.07,357.73,343,357.73,344.57Zm1.89,8.78-3.87-5.15c2-.36,3.42-1.58,3.42-3.69,0-2.27-1.78-3.76-4.55-3.76H349.2v12.6h1.42v-4.89h3.6l3.65,4.89Zm-14.45-8.53c0,1.67-1.37,2.79-3.45,2.79H338.6v-5.54h3.19C343.82,342.07,345.17,343,345.17,344.82Zm1.44-.05c0-2.5-1.87-4-4.71-4h-4.71v12.6h1.42v-4.44h3.06C344.34,348.91,346.61,347.5,346.61,344.77Z" transform="translate(-241.82 -322.5)"/><path class="cls-19" d="M494.47,360.78h-9.11v12.6h9.2v-1.3h-7.77v-4.41h6.87v-1.3h-6.87v-4.3h7.68Zm-14.21,0v12.6h1.42v-12.6Zm-4.61,6.32a4.88,4.88,0,0,1-5.22,5h-3v-10h3A4.91,4.91,0,0,1,475.65,367.1Zm1.48,0c0-3.56-2.73-6.28-6.69-6.28h-4.37v12.6h4.37C474.39,373.38,477.13,370.63,477.13,367.06Zm-20.73-7.4V358h-1.62v1.71Zm3.17,0V358h-1.62v1.71Zm.45,9.1h-5.74l2.88-6.42Zm-2.18-8.08h-1.33l-5.74,12.68h1.46l1.49-3.33h6.86l1.48,3.33h1.53Zm-10,4.16c0,1.67-1.37,2.79-3.45,2.79h-3.11V362.1h3.18C446.47,362.1,447.82,363,447.82,364.85Zm1.44-.05c0-2.5-1.87-4-4.71-4h-4.71v12.6h1.42v-4.44h3.06C447,368.94,449.26,367.53,449.26,364.8Zm-13.91,2.3a5,5,0,0,1-4.93,5.18,5,5,0,0,1-5-5.22,5,5,0,0,1,4.93-5.18A5,5,0,0,1,435.35,367.1Zm1.48,0a6.42,6.42,0,1,0-6.44,6.53A6.33,6.33,0,0,0,436.82,367.06Zm-15.49,4.61v-5h-5.2v1.28H420v3.13a5.93,5.93,0,0,1-3.63,1.26c-3.06,0-5-2.23-5-5.25a4.93,4.93,0,0,1,4.79-5.18,5.36,5.36,0,0,1,3.83,1.44l.92-1.08a6.64,6.64,0,0,0-4.7-1.67,6.33,6.33,0,0,0-6.32,6.53,6.18,6.18,0,0,0,6.41,6.5A7.63,7.63,0,0,0,421.33,371.67Zm-15.38-4.57a5,5,0,0,1-4.93,5.18,5,5,0,0,1-5-5.22,5,5,0,0,1,4.93-5.18A5,5,0,0,1,405.95,367.1Zm1.48,0A6.42,6.42,0,1,0,401,373.6,6.33,6.33,0,0,0,407.42,367.06Zm-22.71,6.32h8.51v-1.31h-7.09V360.78h-1.42Zm-9.88-6.28a4.88,4.88,0,0,1-5.22,5h-3v-10h3A4.91,4.91,0,0,1,374.84,367.1Zm1.48,0c0-3.56-2.73-6.28-6.69-6.28h-4.37v12.6h4.37C373.58,373.38,376.31,370.63,376.31,367.06Zm-16,3.81-7.94-10.09H351v12.6h1.39V363.05l8.13,10.33h1.13v-12.6H360.3Zm-12.63-10.09h-1.42v7.32c0,2.75-1.48,4.16-3.8,4.16s-3.85-1.53-3.85-4.25v-7.23h-1.42v7.32c0,3.56,2.12,5.47,5.24,5.47s5.25-1.91,5.25-5.58Z" transform="translate(-241.82 -322.5)"/><path class="cls-19" d="M433.38,381.48c0,.86-.71,1.37-1.7,1.37h-2v-2.68h2c1.07,0,1.69.49,1.69,1.31m1,4.61-2-2.7a1.94,1.94,0,0,0,1.79-1.94c0-1.19-.93-2-2.39-2H428.9v6.61h.75v-2.57h1.89l1.92,2.57Zm-7-6.61h-4.78v6.61h4.83v-.68h-4.08V383.1h3.61v-.68h-3.61v-2.26h4Zm-7.35.67-4.28,5.44v.5H421v-.67h-4.29L421,380v-.5h-5.16v.67Zm-6.57,4.63-4.17-5.3h-.7v6.61h.73v-5.42l4.27,5.42h.6v-6.61h-.73Zm-9.94-5.88V378h-.85v.9Zm1.66,0V378h-.85v.9Zm.24,4.78h-3l1.51-3.37Zm-1.14-4.24h-.7l-3,6.66h.77l.78-1.75h3.6l.77,1.75h.8Zm-5.5,3.36A2.56,2.56,0,0,1,396,385.4h-1.55v-5.23H396A2.58,2.58,0,0,1,398.75,382.8Zm.77,0a3.3,3.3,0,0,0-3.51-3.3h-2.29v6.61H396A3.31,3.31,0,0,0,399.53,382.78Zm-11.24,2-4.17-5.3h-.7v6.61h.73v-5.42l4.27,5.42H389v-6.61h-.73Zm-8-1.11h-3l1.51-3.37Zm-1.14-4.24h-.7l-3,6.66h.77l.78-1.75h3.6l.77,1.75h.8Zm-5.83,0v6.61H374v-6.61Zm-3.68.69h2.22v-.69h-5.19v.69h2.22v5.92h.76Zm-7.83,1c0-.61.55-1.08,1.41-1.08a2.91,2.91,0,0,1,1.91.72l.43-.58a3.45,3.45,0,0,0-2.32-.81A2,2,0,0,0,361,381.2c0,1.1.7,1.59,2.22,1.92s1.72.64,1.72,1.27-.59,1.13-1.47,1.13a3.15,3.15,0,0,1-2.27-.93l-.46.55a3.87,3.87,0,0,0,2.7,1.06c1.31,0,2.26-.74,2.26-1.88s-.68-1.56-2.15-1.88S361.77,381.77,361.77,381.13Zm-3.26-1.65v6.61h.75v-6.61Zm-2.42,2c0,.86-.71,1.37-1.7,1.37h-2v-2.68h2C355.47,380.17,356.09,380.66,356.09,381.48Zm1,4.61-2-2.7a1.94,1.94,0,0,0,1.79-1.94c0-1.19-.93-2-2.39-2h-2.84v6.61h.75v-2.57h1.89l1.92,2.57Zm-8.08-3v3h.75v-6.61H349v2.94h-3.82v-2.94h-.75v6.61h.75v-3ZM343.13,385l-.49-.48a2.87,2.87,0,0,1-2.13,1,2.74,2.74,0,0,1,0-5.46,2.87,2.87,0,0,1,2.08.91l.51-.55a3.44,3.44,0,0,0-2.58-1,3.42,3.42,0,0,0,0,6.84A3.44,3.44,0,0,0,343.13,385Z" transform="translate(-241.82 -322.5)"/><rect class="cls-20" x="85.84" width="0.94" height="79.18"/></svg>