<?xml version="1.0" encoding="UTF-8"?>
<svg width="99px" height="75px" viewBox="0 0 99 75" version="1.1" xmlns="http://www.w3.org/2000/svg" xmlns:xlink="http://www.w3.org/1999/xlink">
    <!-- Generator: Sketch 43.1 (39012) - http://www.bohemiancoding.com/sketch -->
    <title>Group</title>
    <desc>Created with Sketch.</desc>
    <defs></defs>
    <g id="Page-1" stroke="none" stroke-width="1" fill="none" fill-rule="evenodd">
        <g id="Group" fill-rule="nonzero" fill="#FFFFFF">
            <path d="M11.195,37.234 C14.013,37.224 16.295,34.944 16.312,32.122 C16.295,29.298 14.013,27.01 11.195,27.005 C8.366,27.01 6.08,29.298 6.08,32.122 C6.08,34.944 8.366,37.224 11.195,37.234 L11.195,37.234 Z" id="Shape"></path>
            <polygon id="Shape" points="58.511 63.288 22.564 63.288 0.747 42.995 5.491 37.89 25.305 56.317 58.511 56.317"></polygon>
            <path d="M53.359,53.991 C52.638,53.991 51.905,53.794 51.252,53.365 L42.4,47.609 L30.555,53.581 C29.152,54.289 27.464,54.077 26.277,53.05 L15.643,43.841 C13.821,42.204 13.311,39.526 14.711,37.908 C16.113,36.292 18.778,35.645 20.973,37.587 L29.777,45.214 L40.903,39.691 C42.133,39.071 43.602,39.152 44.759,39.902 L55.473,46.878 C57.267,48.044 57.773,50.446 56.608,52.232 C55.865,53.375 54.627,53.991 53.359,53.991 L53.359,53.991 Z" id="Shape"></path>
            <path d="M77.06,31.818 C74.151,31.818 71.784,29.45 71.784,26.539 C71.784,23.62 74.151,21.254 77.06,21.254 C79.985,21.254 82.344,23.618 82.344,26.539 C82.344,29.451 79.983,31.818 77.06,31.818 Z" id="Shape"></path>
            <path d="M98.146,49.505 C98.146,49.505 95.341,38.086 90.827,33.403 C89.269,31.355 84.659,28.996 81.907,32.483 C80.02,35.638 78.327,40.616 76.796,44.173 L68.92,44.158 L63.358,37.321 L61.531,38.807 L66.524,44.946 C65.937,45.485 65.564,46.25 65.563,47.11 C65.559,48.741 66.881,50.067 68.515,50.07 L73.069,50.075 C71.535,50.429 70.001,51.593 69.756,53.433 L64.297,69.148 C63.577,71.366 64.604,73.513 66.43,74.062 C69.057,74.814 70.992,73.046 71.44,71.555 L76.191,57.668 L94.295,57.668 C96.903,57.668 98.457,55.515 98.622,53.617 C98.784,51.731 98.146,49.505 98.146,49.505 Z M83.461,49.789 L80.971,49.789 L85.981,38.703 C86.143,38.351 86.717,37.798 87.335,38.212 C87.657,38.427 88.313,39.09 88.151,39.442 L83.461,49.789 Z" id="Shape"></path>
            <path d="M43.497,17.458 C42.208,17.458 41.16,16.409 41.16,15.117 C41.16,13.825 42.208,12.776 43.497,12.776 C44.793,12.776 45.839,13.823 45.839,15.117 C45.839,16.409 44.792,17.458 43.497,17.458 Z" id="Shape"></path>
            <path d="M50.365,17.458 C49.076,17.458 48.028,16.409 48.028,15.117 C48.028,13.825 49.076,12.776 50.365,12.776 C51.662,12.776 52.707,13.823 52.707,15.117 C52.707,16.409 51.66,17.458 50.365,17.458 Z" id="Shape"></path>
            <path d="M57.234,17.458 C55.945,17.458 54.898,16.409 54.898,15.117 C54.898,13.825 55.945,12.776 57.234,12.776 C58.532,12.776 59.578,13.823 59.578,15.117 C59.578,16.409 58.529,17.458 57.234,17.458 Z" id="Shape"></path>
            <path d="M50.312,30.737 L23.405,30.737 L36.995,23.018 C35.654,20.693 34.952,18.078 34.952,15.375 C34.952,6.904 41.842,0.013 50.312,0.013 C58.785,0.013 65.678,6.904 65.678,15.375 C65.678,23.846 58.785,30.737 50.312,30.737 L50.312,30.737 Z M33.414,28.094 L50.312,28.094 C57.326,28.094 63.034,22.388 63.034,15.376 C63.034,8.364 57.326,2.657 50.312,2.657 C43.3,2.657 37.595,8.363 37.595,15.376 C37.595,18.015 38.406,20.553 39.939,22.716 L40.785,23.908 L33.414,28.094 L33.414,28.094 Z" id="Shape"></path>
        </g>
    </g>
</svg>